<svg width="174" height="165" viewBox="0 0 174 165" fill="none" xmlns="http://www.w3.org/2000/svg">
<path d="M163.5 1.99998L10.0001 17.5C1.50007 19 0.665123 21 1.50015 25C8.66681 59.3333 23.2001 128.5 24.0001 130.5C24.8001 132.5 27.0001 133.333 28.0001 133.5H52.5001L46.5001 159C46.1001 165.8 51.3335 164.167 54.0001 162.5L112.5 118.5H154C159.5 118 160.5 113.667 161 111L173 7.99998C173.5 3.49998 171.5 1 167.5 1.49998L163.5 1.99998Z" fill="#C9E0EE" stroke="black"/>
<ellipse cx="111.205" cy="72.5" rx="7.01353" ry="7.31622" transform="rotate(1.52261 111.205 72.5)" fill="#171515"/>
<path d="M50.2584 28.9472C47.8584 38.5472 50.925 51.9472 52.7584 57.4472C36.7585 104.447 75.7584 106.281 96.2583 105.947C153.258 97.9473 134.258 63.9473 129.758 52.9471C132.958 40.1471 131.258 27.4471 128.258 22.4472C126.758 20.4472 123.425 20.9472 122.258 21.4472C119.058 22.2472 111.592 28.7805 108.258 31.9472C94.2583 27.1472 77.425 31.2805 70.7583 33.9472C60.7583 27.1472 56.2583 25.7805 55.2583 25.9472C52.0583 25.1472 50.5917 27.6138 50.2584 28.9472Z" stroke="black"/>
<ellipse cx="73.2053" cy="74.5" rx="7.01353" ry="7.31622" transform="rotate(1.52261 73.2053 74.5)" fill="#171515"/>
<path d="M130.5 76.5C132.167 74.1667 138.6 69.9 151 71.5M130 83C134 82 143.2 81.3 148 86.5M54.5 81.5C51.1667 79.6667 42.4 76.7 34 79.5M56 88C52 87.3333 42.8 87.5 38 93.5M92.5 80C89.1667 78.8333 84 76 91.5 74.5C96 74.5 99.7 76 92.5 80ZM92.5 80C91.8333 82.8333 89.3 87.2 84.5 82M92.5 80C93.1667 82.8333 96.1 87 100.5 81" stroke="black"/>
<circle cx="70.5" cy="71.5" r="1.5" fill="white"/>
<circle cx="108.5" cy="69.5" r="1.5" fill="white"/>
<circle cx="74" cy="75" r="3" fill="white"/>
<circle cx="112" cy="73" r="3" fill="white"/>
</svg>
