<svg width="113" height="40" viewBox="0 0 113 40" fill="none" xmlns="http://www.w3.org/2000/svg">
<path d="M0.214 19.722C0.214 18.894 0.196 18.012 0.16 17.076C0.16 16.14 0.322 15.294 0.646 14.538C0.934 13.854 1.402 13.368 2.05 13.08C2.734 12.756 3.4 12.684 4.048 12.864C4.696 12.972 5.2 13.17 5.56 13.458C5.92 13.746 6.172 14.088 6.316 14.484C6.496 14.844 6.604 15.276 6.64 15.78C6.676 16.248 6.712 16.716 6.748 17.184C7.108 16.536 7.558 16.014 8.098 15.618C8.638 15.222 9.196 14.898 9.772 14.646C10.348 14.394 10.888 14.214 11.392 14.106C11.932 13.998 12.346 13.944 12.634 13.944C14.002 13.944 15.352 14.25 16.684 14.862C18.052 15.438 19.186 16.266 20.086 17.346C20.59 17.994 20.968 18.678 21.22 19.398C21.508 20.082 21.706 20.802 21.814 21.558C21.958 22.314 22.048 23.088 22.084 23.88C22.12 24.636 22.156 25.41 22.192 26.202C22.372 28.506 22.372 30.792 22.192 33.06C22.156 33.528 22.138 34.068 22.138 34.68C22.138 35.292 22.084 35.904 21.976 36.516C21.904 37.092 21.742 37.614 21.49 38.082C21.274 38.514 20.896 38.784 20.356 38.892C19.6 39.072 18.97 39.108 18.466 39C17.998 38.928 17.62 38.766 17.332 38.514C17.044 38.262 16.828 37.938 16.684 37.542C16.54 37.146 16.414 36.696 16.306 36.192C16.234 35.796 16.162 35.346 16.09 34.842C16.054 34.302 16.018 33.762 15.982 33.222C15.982 32.682 15.964 32.16 15.928 31.656C15.928 31.116 15.928 30.63 15.928 30.198C15.928 29.514 15.91 28.758 15.874 27.93C15.838 27.102 15.838 26.328 15.874 25.608C15.874 23.916 15.424 22.638 14.524 21.774C13.66 20.874 12.472 20.496 10.96 20.64C9.808 20.784 8.8 21.252 7.936 22.044C7.072 22.8 6.658 23.79 6.694 25.014C6.694 25.482 6.694 25.914 6.694 26.31C6.694 26.706 6.676 27.102 6.64 27.498C6.64 27.894 6.64 28.326 6.64 28.794C6.64 29.262 6.64 29.784 6.64 30.36C6.64 31.548 6.64 32.808 6.64 34.14C6.64 35.436 6.478 36.498 6.154 37.326C5.866 38.19 5.38 38.784 4.696 39.108C4.012 39.432 3.202 39.342 2.266 38.838C1.87 38.622 1.546 38.334 1.294 37.974C1.078 37.578 0.898 37.164 0.754 36.732C0.646 36.3 0.574 35.868 0.538 35.436C0.502 34.968 0.466 34.536 0.43 34.14C0.322 32.952 0.25 31.854 0.214 30.846C0.214 29.802 0.214 28.686 0.214 27.498V19.722ZM33.0034 16.266C34.0834 15.726 35.2174 15.348 36.4054 15.132C37.5934 14.88 38.7634 14.826 39.9154 14.97C41.1034 15.078 42.2374 15.384 43.3174 15.888C44.3974 16.356 45.4054 17.04 46.3414 17.94C47.2774 18.876 47.9974 19.902 48.5014 21.018C49.0054 22.134 49.3654 23.376 49.5814 24.744C49.7254 25.68 49.9594 26.544 50.2834 27.336C50.6074 28.128 50.9494 28.92 51.3094 29.712C51.7054 30.504 52.0654 31.296 52.3894 32.088C52.7494 32.88 53.0374 33.708 53.2534 34.572C53.4334 35.4 53.3614 36.21 53.0374 37.002C52.7494 37.758 52.1374 38.226 51.2014 38.406C50.6614 38.514 50.1394 38.478 49.6354 38.298C49.1674 38.082 48.7354 37.794 48.3394 37.434C47.9434 37.038 47.5834 36.624 47.2594 36.192C46.9714 35.724 46.7014 35.292 46.4494 34.896C45.6214 35.976 44.7214 36.822 43.7494 37.434C42.7774 38.01 41.6074 38.388 40.2394 38.568C39.0874 38.712 37.9894 38.748 36.9454 38.676C35.9014 38.604 34.7854 38.406 33.5974 38.082C32.0494 37.686 30.7714 37.002 29.7634 36.03C28.7914 35.022 28.0354 33.87 27.4954 32.574C26.9914 31.242 26.7214 29.82 26.6854 28.308C26.6494 26.796 26.8294 25.302 27.2254 23.826C27.7294 21.882 28.4854 20.298 29.4934 19.074C30.5014 17.85 31.6714 16.914 33.0034 16.266ZM34.3534 22.584C33.8494 23.088 33.4534 23.682 33.1654 24.366C32.8774 25.05 32.6974 25.77 32.6254 26.526C32.5894 27.282 32.6614 28.038 32.8414 28.794C33.0214 29.55 33.3094 30.216 33.7054 30.792C34.0654 31.296 34.6774 31.728 35.5414 32.088C36.4054 32.412 37.3054 32.61 38.2414 32.682C39.3214 32.754 40.2574 32.466 41.0494 31.818C41.8774 31.17 42.4894 30.36 42.8854 29.388C43.3174 28.38 43.5154 27.318 43.4794 26.202C43.4434 25.05 43.1374 24.006 42.5614 23.07C42.1294 22.386 41.5534 21.882 40.8334 21.558C40.1494 21.234 39.4114 21.072 38.6194 21.072C37.8274 21.036 37.0354 21.162 36.2434 21.45C35.4874 21.702 34.8574 22.08 34.3534 22.584ZM78.5591 15.348C78.7031 15.78 78.7391 16.266 78.6671 16.806C78.5951 17.346 78.4691 17.904 78.2891 18.48C78.1091 19.02 77.8931 19.56 77.6411 20.1C77.4251 20.604 77.2271 21.054 77.0471 21.45C76.1111 23.358 75.2291 25.23 74.4011 27.066C73.5731 28.902 72.6011 30.9 71.4851 33.06C71.2691 33.492 71.0171 34.014 70.7291 34.626C70.4771 35.202 70.1891 35.778 69.8651 36.354C69.5411 36.894 69.1811 37.398 68.7851 37.866C68.4251 38.334 68.0291 38.676 67.5971 38.892C67.2371 39.108 66.8771 39.198 66.5171 39.162C66.2291 39.234 65.9051 39.144 65.5451 38.892C65.1131 38.676 64.6991 38.334 64.3031 37.866C63.9431 37.398 63.6011 36.894 63.2771 36.354C62.9531 35.778 62.6471 35.202 62.3591 34.626C62.1071 34.014 61.8731 33.492 61.6571 33.06C61.2251 32.232 60.8111 31.458 60.4151 30.738C60.0551 30.018 59.6591 29.244 59.2271 28.416C58.8311 27.552 58.3811 26.58 57.8771 25.5C57.3731 24.384 56.7791 23.034 56.0951 21.45C55.9151 21.018 55.7171 20.568 55.5011 20.1C55.2851 19.632 55.0871 19.128 54.9071 18.588C54.7631 18.048 54.6551 17.508 54.5831 16.968C54.5471 16.392 54.5831 15.816 54.6911 15.24C54.7991 14.7 55.0691 14.268 55.5011 13.944C55.9331 13.62 56.4191 13.404 56.9591 13.296C57.4991 13.188 58.0391 13.206 58.5791 13.35C59.1191 13.458 59.5511 13.692 59.8751 14.052C60.1991 14.376 60.5051 14.808 60.7931 15.348C61.0811 15.888 61.3511 16.464 61.6031 17.076C61.8911 17.652 62.1431 18.246 62.3591 18.858C62.6111 19.434 62.8451 19.938 63.0611 20.37C63.5651 21.414 64.1231 22.548 64.7351 23.772C65.3831 24.996 65.9591 26.13 66.4631 27.174C66.8231 26.346 67.1471 25.662 67.4351 25.122C67.7231 24.546 67.9931 23.988 68.2451 23.448C68.5331 22.908 68.8211 22.314 69.1091 21.666C69.4331 21.018 69.8291 20.19 70.2971 19.182C70.7291 18.246 71.1611 17.328 71.5931 16.428C72.0611 15.528 72.6191 14.736 73.2671 14.052C73.5911 13.692 74.0051 13.458 74.5091 13.35C75.0131 13.206 75.5351 13.188 76.0751 13.296C76.6151 13.404 77.1011 13.638 77.5331 13.998C78.0011 14.322 78.3431 14.772 78.5591 15.348ZM112.164 34.032C112.56 34.752 112.722 35.382 112.65 35.922C112.614 36.462 112.56 36.912 112.488 37.272C112.38 37.668 112.11 38.01 111.678 38.298C111.282 38.55 110.832 38.748 110.328 38.892C109.68 39.072 109.14 39.108 108.708 39C108.168 38.892 107.718 38.712 107.358 38.46C107.142 38.28 106.944 38.118 106.764 37.974C106.584 37.794 106.404 37.632 106.224 37.488C106.044 37.308 105.882 37.146 105.738 37.002C105.594 36.858 105.486 36.714 105.414 36.57C105.342 36.426 105.27 36.336 105.198 36.3C105.162 36.228 105.126 36.174 105.09 36.138L97.9084 25.77L90.7804 36.138C90.7444 36.174 90.6904 36.228 90.6184 36.3C90.5824 36.336 90.5104 36.426 90.4024 36.57C90.3304 36.714 90.2224 36.858 90.0784 37.002C89.9704 37.146 89.8444 37.308 89.7004 37.488C89.5204 37.632 89.3224 37.794 89.1064 37.974C88.8904 38.118 88.6924 38.28 88.5124 38.46C88.2964 38.604 88.0624 38.712 87.8104 38.784C87.5944 38.856 87.3784 38.928 87.1624 39C86.6944 39.108 86.1904 39.072 85.6504 38.892C84.5344 38.64 83.7604 38.1 83.3284 37.272C83.1124 36.84 83.0224 36.39 83.0584 35.922C83.0944 35.418 83.2024 34.914 83.3824 34.41C83.5984 33.906 83.8324 33.42 84.0844 32.952C84.3724 32.484 84.6604 32.034 84.9484 31.602C85.0924 31.422 85.2184 31.26 85.3264 31.116C85.4704 30.972 85.6144 30.81 85.7584 30.63C86.2264 30.018 86.6764 29.406 87.1084 28.794C87.5404 28.146 88.0084 27.462 88.5124 26.742L93.5344 19.452L86.1364 8.76L85.4884 7.842C85.3444 7.626 85.2004 7.428 85.0564 7.248C84.9124 7.068 84.7684 6.852 84.6244 6.6C84.4804 6.42 84.3364 6.222 84.1924 6.006C84.0484 5.79 83.9224 5.538 83.8144 5.25C83.7064 5.034 83.5984 4.836 83.4904 4.656C83.4184 4.44 83.3464 4.188 83.2744 3.9C83.1664 3.468 83.1304 3.072 83.1664 2.712C83.2744 2.244 83.5084 1.848 83.8684 1.524C84.0124 1.344 84.1744 1.2 84.3544 1.092C84.5704 0.983998 84.7684 0.875998 84.9484 0.768C85.3084 0.623999 85.6324 0.515999 85.9204 0.443998C86.2084 0.371998 86.5144 0.335999 86.8384 0.335999C87.4864 0.371998 88.0984 0.605999 88.6744 1.038C89.3944 1.506 90.0424 2.082 90.6184 2.766C90.8704 3.162 91.1224 3.54 91.3744 3.9C91.6264 4.224 91.8964 4.566 92.1844 4.926L92.2384 5.142C93.1384 6.33 93.9484 7.482 94.6684 8.598C95.4244 9.678 96.2524 10.83 97.1524 12.054C97.2964 12.234 97.4224 12.414 97.5304 12.594C97.6384 12.774 97.7644 12.954 97.9084 13.134C98.0524 12.954 98.1784 12.774 98.2864 12.594C98.3944 12.414 98.5204 12.234 98.6644 12.054C99.4924 10.83 100.284 9.678 101.04 8.598C101.832 7.482 102.66 6.33 103.524 5.142L103.632 4.926C103.92 4.566 104.19 4.224 104.442 3.9C104.73 3.54 105 3.162 105.252 2.766C105.828 2.082 106.476 1.506 107.196 1.038C107.736 0.605999 108.348 0.371998 109.032 0.335999C109.608 0.335999 110.22 0.479999 110.868 0.768C111.3 1.02 111.624 1.272 111.84 1.524C112.272 1.848 112.542 2.244 112.65 2.712C112.686 3.072 112.65 3.468 112.542 3.9C112.47 4.188 112.38 4.44 112.272 4.656C112.2 4.836 112.074 5.034 111.894 5.25C111.678 5.79 111.444 6.24 111.192 6.6C111.048 6.852 110.904 7.068 110.76 7.248C110.616 7.428 110.49 7.626 110.382 7.842L109.734 8.76L102.282 19.452L107.304 26.742L110.22 30.846C110.544 31.386 110.868 31.908 111.192 32.412C111.516 32.916 111.84 33.456 112.164 34.032Z" fill="black"/>
</svg>
